<svg xmlns="http://www.w3.org/2000/svg" width="20" height="16" viewBox="0 0 20 16">
  <path id="commute-24px" d="M12,4H5A2.946,2.946,0,0,0,2,7v8a2.946,2.946,0,0,0,3,3L4,19v1H5l2-2H9V13H4V6h9V8h2V7A2.946,2.946,0,0,0,12,4ZM5,14a1,1,0,0,1,0,2,1,1,0,0,1,0-2ZM20.6,9.7a1.2,1.2,0,0,0-1-.7H12.4a1.087,1.087,0,0,0-1,.7L10,13.8v5.5a.684.684,0,0,0,.7.7h.6a.773.773,0,0,0,.7-.8V18h8v1.2a.773.773,0,0,0,.7.8h.6a.684.684,0,0,0,.7-.7V13.8Zm-8.2.3h7.2l1,3H11.4ZM12,16a1,1,0,1,1,1-1A.945.945,0,0,1,12,16Zm8,0a1,1,0,1,1,1-1A1,1,0,0,1,20,16Z" transform="translate(-2 -4)" fill="#fff"/>
</svg>
