<svg xmlns="http://www.w3.org/2000/svg" width="20" height="20" viewBox="0 0 20 20">
  <path id="supervised_user_circle-24px" d="M12,2A10,10,0,1,0,22,12,10.029,10.029,0,0,0,12,2Zm3.6,6.3a1.9,1.9,0,0,1,1.9,1.9,1.9,1.9,0,0,1-3.8,0A1.9,1.9,0,0,1,15.6,8.3Zm-6-1.5A2.4,2.4,0,1,1,7.2,9.2,2.369,2.369,0,0,1,9.6,6.8Zm0,9.1v3.7a7.939,7.939,0,0,1-5.1-5c1-1.1,3.7-1.7,5.1-1.7a15.407,15.407,0,0,1,1.9.2A3.334,3.334,0,0,0,9.6,15.9ZM12,20h-.8V15.9c0-1.4,2.9-2.1,4.4-2.1a7.3,7.3,0,0,1,3.8,1.1A7.838,7.838,0,0,1,12,20Z" transform="translate(-2 -2)" fill="#fff"/>
</svg>
