<?xml version="1.0" encoding="utf-8"?>
<!-- Generator: Adobe Illustrator 23.0.2, SVG Export Plug-In . SVG Version: 6.00 Build 0)  -->
<svg version="1.1" id="logob4road_1_" xmlns="http://www.w3.org/2000/svg" xmlns:xlink="http://www.w3.org/1999/xlink" x="0px"
	 y="0px" width="483.3px" height="452.8px" viewBox="0 0 483.3 452.8" style="enable-background:new 0 0 483.3 452.8;"
	 xml:space="preserve">
<g id="logo_1_">
	<path id="_x33__1_" style="opacity:0.36;fill:#FFFFFF;enable-background:new    ;" d="M96.3,89.2c-5.8,0-10.7,1-13.4,2.7
		c-2.3,1.5-3.3,3.3-3.8,4.6c-0.8,2.3-0.5,5,0.9,7.1l76.6,121.6L101.2,89.4C99.5,89.3,97.9,89.2,96.3,89.2"/>
	<path id="_x32__1_" style="opacity:0.6;fill:#FFFFFF;enable-background:new    ;" d="M113.5,60.2c-2.6,0-4.9,0.3-6.5,1
		c-2.5,1-3.9,2.7-4.5,3.8c-1.2,2.2-1.4,4.8-0.4,7.2l53.2,130.1L124.8,61.8C120.7,60.7,116.8,60.2,113.5,60.2"/>
	<path id="_x31__1_" style="fill:#FFFFFF;" d="M153.4,41.4c-7-3.2-13.7-4.5-17.5-3.7c-2.7,0.6-4.3,2-5.1,3c-1.6,1.9-2.2,4.5-1.6,7
		L159,185.5L153.4,41.4z"/>
	<path id="B_1_" style="fill:#C1272D;" d="M279.4,193.8c1.2,3.8,1.8,7.8,1.8,11.9c0,21.8-17.7,39.5-39.5,39.5s-39.5-17.7-39.5-39.5
		s17.7-39.5,39.5-39.5c11.5,0,21.9,5,29.1,12.9l33.1-19.1c-14.2-18.9-36.8-31.2-62.3-31.2c-14.1,0-27.3,3.8-38.8,10.4V68.4
		c0-20-22.6-35.9-31.4-35.9c-2.4,0-4,0.9-4.9,1.6c-1.7,1.3-2.7,3.4-2.7,5.7v166.8c0,42.9,34.8,77.8,77.8,77.8s77.8-34.8,77.8-77.8
		c0-11.4-2.5-22.2-6.9-31.9L279.4,193.8z"/>
</g>
<g id="name_1_">
	<path id="b_1_" style="fill:#FFFFFF;" d="M87.2,360.6c0.5,1.7,0.8,3.6,0.8,5.5c0,10-8.1,18-18,18c-9.9,0-18-8.1-18-18s8.1-18,18-18
		c5.3,0,10,2.3,13.3,5.9l15.1-8.7c-6.5-8.6-16.8-14.2-28.4-14.2c-6.4,0-12.5,1.7-17.7,4.7v-32.3c0-9.1-10.3-16.4-14.3-16.4
		c-1.1,0-1.8,0.4-2.2,0.7c-0.8,0.6-1.2,1.6-1.2,2.6v76.1c0,19.6,15.9,35.5,35.5,35.5s35.5-15.9,35.5-35.5c0-5.2-1.1-10.1-3.1-14.6
		L87.2,360.6z"/>
	<path id="_x34__1_" style="fill:#C1272D;" d="M154.4,420.3c-2.4,0-4.6-1-6.3-2.8c-1.6-1.7-2.5-3.9-2.5-6.3v-9.7h-31.6
		c-2.6,0-4.9-1-6.6-2.8c-1.6-1.8-2.5-3.8-2.5-6.2c0-2,0.6-3.9,1.8-5.4l40.6-53.2c1.9-2.5,4.5-3.8,7.4-3.8c2.5,0,4.8,1,6.4,2.8
		c1.5,1.8,2.3,3.9,2.3,6.4v45.1h2.7c2.5,0,4.5,0.7,6.2,1.9c1.3,1,2.9,3,2.9,6.6c0,2.4-1,4.5-2.8,6.2c-1.7,1.6-3.8,2.4-6.3,2.4h-2.7
		v9.7c0,2.4-0.9,4.6-2.6,6.4C159.1,419.4,156.8,420.3,154.4,420.3z M145.6,384.4v-20.5l-15.6,20.5H145.6z"/>
	<path id="r_1_" style="fill:#FFFFFF;" d="M188.8,402.1c-2.8,0-5.1-0.8-6.7-2.4c-1.7-1.6-2.6-4-2.6-6.9V340c0-2.8,0.9-5.1,2.5-6.8
		c1.7-1.7,4-2.5,6.8-2.5c4.1,0,7,1.7,8.4,4.7c1.5-1.1,3.1-2,4.8-2.8c3.9-1.8,8.1-2.7,12.5-2.7c4.8,0,8.5,0.7,11.4,2.3
		c4.4,2.4,5.4,5.5,5.4,7.7c0,0.9-0.1,1.6-0.3,2.2c-1.1,3.9-4,6.2-8,6.2c-0.6,0-1.4-0.1-2.4-0.3c-2.9-0.5-5.2-0.8-7-0.8
		c-4.9,0-8.8,1.1-11.6,3.2c-2.6,2-3.8,4.4-3.8,7.8v34.5c0,2.8-0.8,5.1-2.4,6.7C194.1,401.2,191.8,402.1,188.8,402.1z"/>
	<path id="o_1_" style="fill:#FFFFFF;" d="M265.5,331c-19.6,0-35.5,15.9-35.5,35.5s15.9,35.5,35.5,35.5s35.5-15.9,35.5-35.5
		S285.1,331,265.5,331z M265.5,384.1c-10,0-18-8.1-18-18s8.1-18,18-18s18,8.1,18,18S275.5,384.1,265.5,384.1z"/>
	<path id="a_1_" style="fill:#FFFFFF;" d="M375.2,366.5c0-19.6-15.9-35.5-35.5-35.5s-35.5,15.9-35.5,35.5s15.9,35.5,35.5,35.5
		c6.9,0,13.4-2,18.8-5.4c1.2,3.2,4.4,5.6,8.1,5.6c4.8,0,8.6-3.9,8.6-8.6C375.2,389.8,375.2,373.4,375.2,366.5z M339.8,384.1
		c-10,0-18-8.1-18-18s8.1-18,18-18s18,8.1,18,18S349.6,384.1,339.8,384.1z"/>
	<path id="d_1_" style="fill:#FFFFFF;" d="M447.4,287.7c-0.4-0.3-1.2-0.7-2.2-0.7c-4,0-14.3,7.3-14.3,16.4v32.3
		c-5.2-3-11.2-4.7-17.7-4.7c-19.6,0-35.5,15.9-35.5,35.5s15.9,35.5,35.5,35.5s35.5-15.9,35.5-35.5v-76.1
		C448.5,289.3,448.1,288.3,447.4,287.7z M413,384.1c-10,0-18-8.1-18-18s8.1-18,18-18s18,8.1,18,18S423,384.1,413,384.1z"/>
	<g>
		<path style="fill:#FFFFFF;" d="M181.6,412h1.3v16.3c0,0.5,0.1,0.9,0.4,1.2c0.3,0.3,0.7,0.4,1.2,0.4c0.2,0,0.4,0,0.7-0.1
			c0.3,0,0.5-0.1,0.7-0.2l0.3,1c-0.3,0.1-0.7,0.2-1.1,0.3c-0.4,0.1-0.8,0.1-1.1,0.1c-0.7,0-1.3-0.2-1.8-0.7c-0.4-0.4-0.7-1-0.7-1.8
			V412z"/>
		<path style="fill:#FFFFFF;" d="M193.9,431.2c-1,0-1.8-0.2-2.6-0.6c-0.8-0.4-1.5-0.9-2.1-1.5c-0.6-0.6-1.1-1.4-1.4-2.2
			c-0.3-0.8-0.5-1.8-0.5-2.7c0-1,0.2-1.8,0.5-2.7c0.3-0.8,0.8-1.6,1.4-2.2c0.6-0.6,1.3-1.1,2.1-1.5c0.8-0.4,1.7-0.5,2.6-0.5
			c1,0,1.8,0.2,2.6,0.6s1.5,0.9,2.1,1.5s1,1.4,1.4,2.2c0.3,0.8,0.5,1.7,0.5,2.7c0,0.1,0,0.2,0,0.3s0,0.2,0,0.2h-11.8
			c0.1,0.8,0.2,1.5,0.5,2.2c0.3,0.7,0.7,1.2,1.2,1.7c0.5,0.5,1,0.9,1.6,1.1c0.6,0.3,1.3,0.4,2,0.4c0.5,0,0.9-0.1,1.4-0.2
			c0.5-0.1,0.9-0.3,1.3-0.5c0.4-0.2,0.7-0.5,1-0.8c0.3-0.3,0.5-0.7,0.7-1.1l1.1,0.3c-0.2,0.5-0.5,0.9-0.8,1.3
			c-0.4,0.4-0.8,0.8-1.3,1.1c-0.5,0.3-1,0.5-1.6,0.7C195.2,431.1,194.6,431.2,193.9,431.2z M199.2,423.7c-0.1-0.8-0.2-1.5-0.5-2.2
			c-0.3-0.7-0.7-1.2-1.2-1.7c-0.5-0.5-1-0.8-1.6-1.1s-1.3-0.4-2-0.4s-1.4,0.1-2,0.4c-0.6,0.3-1.2,0.6-1.6,1.1
			c-0.5,0.5-0.9,1-1.1,1.7s-0.5,1.4-0.5,2.2H199.2z"/>
		<path style="fill:#FFFFFF;" d="M209.1,424.2c0-1,0.2-1.9,0.5-2.7c0.3-0.8,0.8-1.6,1.4-2.2c0.6-0.6,1.3-1.1,2.1-1.5
			c0.8-0.4,1.7-0.5,2.7-0.5c1.2,0,2.3,0.3,3.2,0.8c0.9,0.6,1.6,1.3,2.1,2.3l-1.3,0.4c-0.4-0.7-1-1.3-1.7-1.8
			c-0.7-0.4-1.5-0.6-2.4-0.6c-0.7,0-1.4,0.1-2.1,0.4c-0.6,0.3-1.2,0.7-1.7,1.2c-0.5,0.5-0.9,1.1-1.1,1.8s-0.4,1.5-0.4,2.3
			s0.1,1.6,0.4,2.3c0.3,0.7,0.7,1.3,1.1,1.9c0.5,0.5,1,0.9,1.7,1.3c0.6,0.3,1.3,0.5,2.1,0.5c0.5,0,0.9-0.1,1.4-0.2
			c0.5-0.1,0.9-0.3,1.3-0.5c0.4-0.2,0.7-0.5,1-0.8c0.3-0.3,0.5-0.6,0.6-0.9l1.3,0.4c-0.2,0.5-0.4,0.9-0.8,1.3
			c-0.4,0.4-0.8,0.8-1.3,1.1c-0.5,0.3-1,0.5-1.6,0.7c-0.6,0.2-1.2,0.2-1.8,0.2c-1,0-1.8-0.2-2.6-0.6c-0.8-0.4-1.5-0.9-2.1-1.5
			c-0.6-0.6-1.1-1.4-1.4-2.2C209.3,426,209.1,425.1,209.1,424.2z"/>
		<path style="fill:#FFFFFF;" d="M224.3,412h1.3v16.3c0,0.5,0.1,0.9,0.4,1.2c0.3,0.3,0.7,0.4,1.2,0.4c0.2,0,0.4,0,0.7-0.1
			c0.3,0,0.5-0.1,0.7-0.2l0.3,1c-0.3,0.1-0.7,0.2-1.1,0.3c-0.4,0.1-0.8,0.1-1.1,0.1c-0.7,0-1.3-0.2-1.8-0.7c-0.4-0.4-0.7-1-0.7-1.8
			V412z"/>
		<path style="fill:#FFFFFF;" d="M236.6,431.2c-1,0-1.8-0.2-2.6-0.6c-0.8-0.4-1.5-0.9-2.1-1.5c-0.6-0.6-1-1.4-1.4-2.2
			c-0.3-0.8-0.5-1.7-0.5-2.7c0-1,0.2-1.9,0.5-2.7c0.3-0.8,0.8-1.6,1.4-2.2c0.6-0.6,1.3-1.1,2.1-1.5s1.7-0.6,2.6-0.6
			c0.9,0,1.8,0.2,2.6,0.6c0.8,0.4,1.5,0.9,2.1,1.5c0.6,0.6,1.1,1.4,1.4,2.2s0.5,1.8,0.5,2.7c0,0.9-0.2,1.8-0.5,2.7s-0.8,1.6-1.4,2.2
			c-0.6,0.6-1.3,1.1-2.1,1.5C238.4,431,237.5,431.2,236.6,431.2z M231.3,424.3c0,0.8,0.1,1.5,0.4,2.2s0.7,1.3,1.1,1.8
			c0.5,0.5,1,0.9,1.7,1.2c0.6,0.3,1.3,0.5,2.1,0.5s1.4-0.2,2.1-0.5c0.6-0.3,1.2-0.7,1.7-1.3c0.5-0.5,0.9-1.2,1.1-1.9
			c0.3-0.7,0.4-1.5,0.4-2.3c0-0.8-0.1-1.5-0.4-2.2c-0.3-0.7-0.7-1.3-1.1-1.8c-0.5-0.5-1-0.9-1.7-1.3c-0.6-0.3-1.3-0.5-2-0.5
			s-1.4,0.2-2.1,0.5c-0.6,0.3-1.2,0.7-1.7,1.3c-0.5,0.5-0.9,1.2-1.1,1.9S231.3,423.5,231.3,424.3z"/>
		<path style="fill:#FFFFFF;" d="M250.5,431.2c-2.9,0-4.3-2-4.3-6v-7.8h1.3v7.6c0,3.3,1.1,5,3.4,5c0.6,0,1.1-0.1,1.7-0.3
			c0.5-0.2,1-0.5,1.5-0.8c0.5-0.4,0.9-0.8,1.2-1.3c0.4-0.5,0.6-1.1,0.8-1.7v-8.5h1.3v11.7c0,0.4,0.2,0.6,0.5,0.6v1.2
			c-0.1,0-0.2,0-0.2,0c-0.1,0-0.1,0-0.2,0c-0.3,0-0.7-0.1-0.9-0.3c-0.3-0.2-0.4-0.5-0.4-0.9v-2c-0.6,1.1-1.4,1.9-2.4,2.5
			C252.8,430.9,251.7,431.2,250.5,431.2z"/>
		<path style="fill:#FFFFFF;" d="M261.9,432v-20.3h2.6v1.1h-1.4v18h1.4v1.1H261.9z"/>
		<path style="fill:#FFFFFF;" d="M273.3,431.2c-0.9,0-1.8-0.2-2.6-0.6c-0.8-0.4-1.5-0.9-2.1-1.6c-0.6-0.6-1-1.4-1.4-2.2
			c-0.3-0.8-0.5-1.7-0.5-2.6c0-0.9,0.2-1.8,0.5-2.7s0.7-1.6,1.3-2.2c0.6-0.6,1.2-1.2,2-1.5c0.8-0.4,1.6-0.6,2.5-0.6
			c0.6,0,1.1,0.1,1.7,0.3s1,0.4,1.5,0.7c0.5,0.3,0.9,0.6,1.2,1c0.4,0.4,0.7,0.8,0.9,1.2V412h1.3v17.1c0,0.4,0.2,0.6,0.5,0.6v1.2
			c-0.1,0-0.2,0-0.3,0s-0.1,0-0.2,0c-0.3,0-0.6-0.1-0.9-0.4c-0.2-0.3-0.4-0.5-0.4-0.8v-1.5c-0.6,0.9-1.3,1.6-2.2,2.2
			C275.2,431,274.3,431.2,273.3,431.2z M273.5,430.1c0.5,0,1-0.1,1.5-0.3c0.5-0.2,1-0.5,1.5-0.8s0.9-0.7,1.2-1.2
			c0.3-0.4,0.5-0.9,0.6-1.4V422c-0.2-0.5-0.5-0.9-0.8-1.4c-0.4-0.4-0.8-0.8-1.2-1.1c-0.5-0.3-0.9-0.6-1.5-0.8s-1-0.3-1.5-0.3
			c-0.8,0-1.5,0.2-2.1,0.5c-0.6,0.3-1.2,0.8-1.6,1.3c-0.5,0.5-0.8,1.2-1,1.9c-0.2,0.7-0.4,1.4-0.4,2.2c0,0.8,0.1,1.5,0.4,2.2
			c0.3,0.7,0.7,1.3,1.2,1.8c0.5,0.5,1.1,1,1.7,1.3C272,429.9,272.7,430.1,273.5,430.1z"/>
		<path style="fill:#FFFFFF;" d="M283.1,432v-1.1h1.4v-18h-1.4v-1.1h2.6V432H283.1z"/>
		<path style="fill:#FFFFFF;" d="M302.3,431.2c-0.9,0-1.8-0.2-2.6-0.6c-0.8-0.4-1.5-0.9-2.1-1.6c-0.6-0.6-1-1.4-1.4-2.2
			c-0.3-0.8-0.5-1.7-0.5-2.6c0-0.9,0.2-1.8,0.5-2.7s0.7-1.6,1.3-2.2c0.6-0.6,1.2-1.2,2-1.5c0.8-0.4,1.6-0.6,2.5-0.6
			c0.6,0,1.1,0.1,1.7,0.3s1,0.4,1.5,0.7c0.5,0.3,0.9,0.6,1.2,1c0.4,0.4,0.7,0.8,0.9,1.2V412h1.3v17.1c0,0.4,0.2,0.6,0.5,0.6v1.2
			c-0.1,0-0.2,0-0.3,0s-0.1,0-0.2,0c-0.3,0-0.6-0.1-0.9-0.4c-0.2-0.3-0.4-0.5-0.4-0.8v-1.5c-0.6,0.9-1.3,1.6-2.2,2.2
			C304.3,431,303.3,431.2,302.3,431.2z M302.6,430.1c0.5,0,1-0.1,1.5-0.3c0.5-0.2,1-0.5,1.5-0.8s0.9-0.7,1.2-1.2
			c0.3-0.4,0.5-0.9,0.6-1.4V422c-0.2-0.5-0.5-0.9-0.8-1.4c-0.4-0.4-0.8-0.8-1.2-1.1c-0.5-0.3-0.9-0.6-1.5-0.8s-1-0.3-1.5-0.3
			c-0.8,0-1.5,0.2-2.1,0.5c-0.6,0.3-1.2,0.8-1.6,1.3c-0.5,0.5-0.8,1.2-1,1.9c-0.2,0.7-0.4,1.4-0.4,2.2c0,0.8,0.1,1.5,0.4,2.2
			c0.3,0.7,0.7,1.3,1.2,1.8c0.5,0.5,1.1,1,1.7,1.3C301.1,429.9,301.8,430.1,302.6,430.1z"/>
		<path style="fill:#FFFFFF;" d="M316.9,431.2c-2.9,0-4.3-2-4.3-6v-7.8h1.3v7.6c0,3.3,1.1,5,3.4,5c0.6,0,1.1-0.1,1.7-0.3
			c0.5-0.2,1-0.5,1.5-0.8c0.5-0.4,0.9-0.8,1.2-1.3c0.4-0.5,0.6-1.1,0.8-1.7v-8.5h1.3v11.7c0,0.4,0.2,0.6,0.5,0.6v1.2
			c-0.1,0-0.2,0-0.2,0c-0.1,0-0.1,0-0.2,0c-0.3,0-0.7-0.1-0.9-0.3c-0.3-0.2-0.4-0.5-0.4-0.9v-2c-0.6,1.1-1.4,1.9-2.4,2.5
			C319.2,430.9,318.1,431.2,316.9,431.2z"/>
		<path style="fill:#FFFFFF;" d="M339,431.2c-1,0-2-0.2-3-0.5s-1.8-0.9-2.5-1.6l0.6-0.9c0.7,0.7,1.5,1.1,2.3,1.5s1.6,0.5,2.6,0.5
			c1.2,0,2.1-0.2,2.8-0.7c0.7-0.5,1.1-1.2,1.1-2.1c0-0.4-0.1-0.8-0.3-1.1c-0.2-0.3-0.5-0.5-0.8-0.7c-0.4-0.2-0.8-0.4-1.4-0.5
			s-1.2-0.3-1.9-0.5c-0.8-0.2-1.4-0.3-2-0.5c-0.6-0.2-1-0.4-1.4-0.6c-0.4-0.2-0.6-0.5-0.8-0.9c-0.2-0.3-0.3-0.8-0.3-1.3
			c0-0.7,0.1-1.3,0.4-1.8c0.3-0.5,0.6-0.9,1.1-1.2s1-0.6,1.6-0.7c0.6-0.2,1.2-0.2,1.9-0.2c1.1,0,2,0.2,2.8,0.5
			c0.8,0.4,1.4,0.8,1.9,1.4l-0.7,0.7c-0.5-0.5-1-0.9-1.8-1.2c-0.7-0.3-1.5-0.4-2.3-0.4c-0.5,0-1,0.1-1.4,0.2
			c-0.4,0.1-0.8,0.3-1.2,0.5c-0.3,0.2-0.6,0.5-0.8,0.9c-0.2,0.4-0.3,0.8-0.3,1.3c0,0.4,0.1,0.7,0.2,1s0.3,0.5,0.6,0.6
			c0.3,0.2,0.7,0.3,1.1,0.5s1,0.3,1.6,0.4c0.8,0.2,1.6,0.4,2.3,0.6s1.2,0.4,1.7,0.7c0.4,0.3,0.8,0.6,1,1c0.2,0.4,0.4,0.9,0.4,1.5
			c0,1.2-0.5,2.2-1.4,2.9C341.8,430.9,340.5,431.2,339,431.2z"/>
		<path style="fill:#FFFFFF;" d="M353.8,431.2c-1.2,0-2.2-0.3-3.1-0.9c-0.9-0.6-1.6-1.4-2.2-2.2v8.4h-1.3v-19h1.2v2.7
			c0.6-0.9,1.3-1.6,2.2-2.1c0.9-0.5,1.9-0.8,2.9-0.8c0.9,0,1.8,0.2,2.6,0.6s1.5,0.9,2.1,1.6c0.6,0.6,1,1.4,1.3,2.2
			c0.3,0.8,0.5,1.7,0.5,2.6c0,0.9-0.1,1.8-0.4,2.7c-0.3,0.8-0.7,1.6-1.3,2.2c-0.5,0.6-1.2,1.1-2,1.5
			C355.5,431,354.7,431.2,353.8,431.2z M353.5,430.1c0.8,0,1.5-0.2,2.1-0.5c0.6-0.3,1.2-0.8,1.6-1.3c0.5-0.5,0.8-1.2,1-1.9
			c0.2-0.7,0.4-1.4,0.4-2.1c0-0.8-0.1-1.5-0.4-2.2c-0.3-0.7-0.7-1.3-1.2-1.9c-0.5-0.5-1.1-1-1.7-1.3c-0.7-0.3-1.4-0.5-2.1-0.5
			c-0.5,0-1,0.1-1.5,0.3s-1,0.5-1.5,0.8c-0.5,0.3-0.9,0.7-1.2,1.2c-0.3,0.4-0.5,0.9-0.6,1.4v4.4c0.2,0.5,0.5,1,0.9,1.4
			c0.3,0.4,0.7,0.8,1.2,1.1s0.9,0.6,1.4,0.8C352.4,430,352.9,430.1,353.5,430.1z"/>
		<path style="fill:#FFFFFF;" d="M368.8,431.2c-1,0-1.8-0.2-2.6-0.6c-0.8-0.4-1.5-0.9-2.1-1.5c-0.6-0.6-1.1-1.4-1.4-2.2
			s-0.5-1.8-0.5-2.7c0-1,0.2-1.8,0.5-2.7c0.3-0.8,0.8-1.6,1.4-2.2c0.6-0.6,1.3-1.1,2.1-1.5c0.8-0.4,1.7-0.5,2.6-0.5
			c1,0,1.8,0.2,2.6,0.6s1.5,0.9,2.1,1.5s1,1.4,1.4,2.2s0.5,1.7,0.5,2.7c0,0.1,0,0.2,0,0.3s0,0.2,0,0.2h-11.8
			c0.1,0.8,0.2,1.5,0.5,2.2c0.3,0.7,0.7,1.2,1.2,1.7c0.5,0.5,1,0.9,1.6,1.1c0.6,0.3,1.3,0.4,2,0.4c0.5,0,0.9-0.1,1.4-0.2
			c0.5-0.1,0.9-0.3,1.3-0.5c0.4-0.2,0.7-0.5,1-0.8s0.5-0.7,0.7-1.1l1.1,0.3c-0.2,0.5-0.5,0.9-0.8,1.3c-0.4,0.4-0.8,0.8-1.3,1.1
			c-0.5,0.3-1,0.5-1.6,0.7C370,431.1,369.4,431.2,368.8,431.2z M374.1,423.7c-0.1-0.8-0.2-1.5-0.5-2.2c-0.3-0.7-0.7-1.2-1.2-1.7
			s-1-0.8-1.6-1.1c-0.6-0.3-1.3-0.4-2-0.4s-1.4,0.1-2,0.4c-0.6,0.3-1.2,0.6-1.7,1.1s-0.9,1-1.1,1.7s-0.5,1.4-0.5,2.2H374.1z"/>
		<path style="fill:#FFFFFF;" d="M377.3,424.2c0-1,0.2-1.9,0.5-2.7s0.8-1.6,1.4-2.2c0.6-0.6,1.3-1.1,2.1-1.5
			c0.8-0.4,1.7-0.5,2.7-0.5c1.2,0,2.3,0.3,3.2,0.8c0.9,0.6,1.6,1.3,2.1,2.3l-1.3,0.4c-0.4-0.7-1-1.3-1.7-1.8s-1.5-0.6-2.4-0.6
			c-0.7,0-1.4,0.1-2.1,0.4c-0.6,0.3-1.2,0.7-1.7,1.2c-0.5,0.5-0.9,1.1-1.1,1.8s-0.4,1.5-0.4,2.3s0.1,1.6,0.4,2.3
			c0.3,0.7,0.7,1.3,1.1,1.9s1,0.9,1.7,1.3s1.3,0.5,2.1,0.5c0.5,0,0.9-0.1,1.4-0.2c0.5-0.1,0.9-0.3,1.3-0.5c0.4-0.2,0.7-0.5,1-0.8
			c0.3-0.3,0.5-0.6,0.6-0.9l1.3,0.4c-0.2,0.5-0.4,0.9-0.8,1.3c-0.4,0.4-0.8,0.8-1.3,1.1c-0.5,0.3-1,0.5-1.6,0.7
			c-0.6,0.2-1.2,0.2-1.8,0.2c-1,0-1.8-0.2-2.6-0.6c-0.8-0.4-1.5-0.9-2.1-1.5c-0.6-0.6-1.1-1.4-1.4-2.2S377.3,425.1,377.3,424.2z"/>
		<path style="fill:#FFFFFF;" d="M398.4,430.3c-0.1,0-0.2,0.1-0.4,0.2c-0.2,0.1-0.4,0.2-0.6,0.3s-0.5,0.2-0.8,0.2
			c-0.3,0.1-0.6,0.1-1,0.1c-0.4,0-0.7-0.1-1-0.2s-0.6-0.3-0.8-0.5c-0.2-0.2-0.4-0.5-0.6-0.8c-0.1-0.3-0.2-0.6-0.2-1v-10.2H391v-1.1
			h1.9v-4.6h1.3v4.6h3.1v1.1h-3.1v9.9c0,0.5,0.2,0.9,0.5,1.1s0.7,0.4,1.2,0.4c0.5,0,1-0.1,1.4-0.3s0.6-0.3,0.7-0.4L398.4,430.3z"/>
		<path style="fill:#FFFFFF;" d="M404,431.2c-0.6,0-1.2-0.1-1.7-0.3c-0.5-0.2-1-0.5-1.4-0.9c-0.4-0.4-0.7-0.8-0.9-1.3
			c-0.2-0.5-0.3-1.1-0.3-1.6s0.1-1.1,0.4-1.6c0.3-0.5,0.7-0.9,1.2-1.3c0.5-0.4,1.1-0.6,1.8-0.8c0.7-0.2,1.5-0.3,2.3-0.3
			c0.7,0,1.5,0.1,2.2,0.2s1.4,0.3,2,0.5v-1.3c0-1.3-0.4-2.3-1.1-3.1c-0.7-0.8-1.7-1.1-3-1.1c-0.7,0-1.4,0.1-2.1,0.4
			c-0.7,0.3-1.5,0.7-2.2,1.2l-0.5-0.9c1.7-1.2,3.4-1.8,4.9-1.8c1.6,0,2.9,0.5,3.8,1.4s1.4,2.2,1.4,3.9v6.6c0,0.4,0.2,0.6,0.6,0.6
			v1.2c-0.1,0-0.2,0-0.3,0c-0.1,0-0.2,0-0.2,0c-0.3,0-0.6-0.1-0.8-0.4s-0.3-0.5-0.4-0.8v-1.1c-0.6,0.8-1.4,1.4-2.4,1.9
			S405.1,431.2,404,431.2z M404.3,430.2c1,0,1.9-0.2,2.8-0.6c0.8-0.4,1.5-0.9,1.9-1.5c0.3-0.4,0.4-0.7,0.4-1v-2.4
			c-0.6-0.2-1.3-0.4-1.9-0.5c-0.7-0.1-1.4-0.2-2.1-0.2c-0.7,0-1.3,0.1-1.8,0.2c-0.6,0.1-1,0.4-1.4,0.6s-0.7,0.6-0.9,0.9
			c-0.2,0.4-0.3,0.8-0.3,1.2s0.1,0.9,0.3,1.3s0.4,0.7,0.7,1c0.3,0.3,0.7,0.5,1.1,0.7C403.3,430.1,403.8,430.2,404.3,430.2z"/>
		<path style="fill:#FFFFFF;" d="M413.7,424.2c0-1,0.2-1.9,0.5-2.7s0.8-1.6,1.4-2.2c0.6-0.6,1.3-1.1,2.1-1.5
			c0.8-0.4,1.7-0.5,2.7-0.5c1.2,0,2.3,0.3,3.2,0.8c0.9,0.6,1.6,1.3,2.1,2.3l-1.3,0.4c-0.4-0.7-1-1.3-1.7-1.8s-1.5-0.6-2.4-0.6
			c-0.7,0-1.4,0.1-2.1,0.4c-0.6,0.3-1.2,0.7-1.7,1.2c-0.5,0.5-0.9,1.1-1.1,1.8s-0.4,1.5-0.4,2.3s0.1,1.6,0.4,2.3
			c0.3,0.7,0.7,1.3,1.1,1.9s1,0.9,1.7,1.3s1.3,0.5,2.1,0.5c0.5,0,0.9-0.1,1.4-0.2c0.5-0.1,0.9-0.3,1.3-0.5c0.4-0.2,0.7-0.5,1-0.8
			c0.3-0.3,0.5-0.6,0.6-0.9l1.3,0.4c-0.2,0.5-0.4,0.9-0.8,1.3c-0.4,0.4-0.8,0.8-1.3,1.1c-0.5,0.3-1,0.5-1.6,0.7
			c-0.6,0.2-1.2,0.2-1.8,0.2c-1,0-1.8-0.2-2.6-0.6c-0.8-0.4-1.5-0.9-2.1-1.5c-0.6-0.6-1.1-1.4-1.4-2.2S413.7,425.1,413.7,424.2z"/>
		<path style="fill:#FFFFFF;" d="M428.9,412h1.3v16.3c0,0.5,0.1,0.9,0.4,1.2c0.3,0.3,0.7,0.4,1.2,0.4c0.2,0,0.4,0,0.7-0.1
			c0.3,0,0.5-0.1,0.7-0.2l0.3,1c-0.3,0.1-0.7,0.2-1.1,0.3c-0.4,0.1-0.8,0.1-1.1,0.1c-0.7,0-1.3-0.2-1.8-0.7s-0.7-1-0.7-1.8V412z"/>
		<path style="fill:#FFFFFF;" d="M441.3,431.2c-1,0-1.8-0.2-2.6-0.6c-0.8-0.4-1.5-0.9-2.1-1.5c-0.6-0.6-1.1-1.4-1.4-2.2
			s-0.5-1.8-0.5-2.7c0-1,0.2-1.8,0.5-2.7c0.3-0.8,0.8-1.6,1.4-2.2c0.6-0.6,1.3-1.1,2.1-1.5c0.8-0.4,1.7-0.5,2.6-0.5
			c1,0,1.8,0.2,2.6,0.6s1.5,0.9,2.1,1.5s1,1.4,1.4,2.2s0.5,1.7,0.5,2.7c0,0.1,0,0.2,0,0.3s0,0.2,0,0.2h-11.8
			c0.1,0.8,0.2,1.5,0.5,2.2c0.3,0.7,0.7,1.2,1.2,1.7c0.5,0.5,1,0.9,1.6,1.1c0.6,0.3,1.3,0.4,2,0.4c0.5,0,0.9-0.1,1.4-0.2
			c0.5-0.1,0.9-0.3,1.3-0.5c0.4-0.2,0.7-0.5,1-0.8s0.5-0.7,0.7-1.1l1.1,0.3c-0.2,0.5-0.5,0.9-0.8,1.3c-0.4,0.4-0.8,0.8-1.3,1.1
			c-0.5,0.3-1,0.5-1.6,0.7C442.5,431.1,441.9,431.2,441.3,431.2z M446.6,423.7c-0.1-0.8-0.2-1.5-0.5-2.2c-0.3-0.7-0.7-1.2-1.2-1.7
			s-1-0.8-1.6-1.1c-0.6-0.3-1.3-0.4-2-0.4s-1.4,0.1-2,0.4c-0.6,0.3-1.2,0.6-1.7,1.1s-0.9,1-1.1,1.7s-0.5,1.4-0.5,2.2H446.6z"/>
	</g>
</g>
</svg>
