<?xml version="1.0" encoding="utf-8"?>
<!-- Generator: Adobe Illustrator 23.0.2, SVG Export Plug-In . SVG Version: 6.00 Build 0)  -->
<svg version="1.1" id="logob4road" xmlns="http://www.w3.org/2000/svg" xmlns:xlink="http://www.w3.org/1999/xlink" x="0px" y="0px"
	 width="250.3px" height="251.8px" viewBox="0 0 250.3 251.8" style="enable-background:new 0 0 250.3 251.8;" xml:space="preserve"
	>
<g id="logo">
	<g id="ailes">
		<path id="_x33__1_" style="opacity:0.36;fill:#C1272D;" d="M18.2,51.7c-5.8,0-10.7,1-13.4,2.7c-2.3,1.5-3.3,3.3-3.8,4.6
			c-0.8,2.3-0.5,5,0.9,7.1l76.6,121.6L23.1,51.9C21.4,51.8,19.8,51.7,18.2,51.7"/>
		<path id="_x32__1_" style="opacity:0.6;fill:#C1272D;" d="M35.3,22.7c-2.6,0-4.9,0.3-6.5,1c-2.5,1-3.9,2.7-4.5,3.8
			c-1.2,2.2-1.4,4.8-0.4,7.2l53.2,130.1L46.6,24.3C42.5,23.2,38.6,22.7,35.3,22.7"/>
		<path id="_x31__1_" style="fill:#C1272D;" d="M75.3,3.9c-7-3.2-13.7-4.5-17.5-3.7c-2.7,0.6-4.3,2-5.1,3c-1.6,1.9-2.2,4.5-1.6,7
			L80.9,148L75.3,3.9z"/>
	</g>
	<path id="B" style="fill:#FFFFFF;" d="M200.4,161.3c1.2,3.8,1.8,7.8,1.8,11.9c0,21.8-17.7,39.5-39.5,39.5s-39.5-17.7-39.5-39.5
		s17.7-39.5,39.5-39.5c11.5,0,21.9,5,29.1,12.9l33.1-19.1c-14.2-18.9-36.8-31.2-62.3-31.2c-14.1,0-27.3,3.8-38.8,10.4V35.9
		C124,15.9,101.4,0,92.6,0c-2.4,0-4,0.9-4.9,1.6C86,2.9,85,5,85,7.3V174c0,42.9,34.8,77.8,77.8,77.8s77.8-34.8,77.8-77.8
		c0-11.4-2.5-22.2-6.9-31.9L200.4,161.3z"/>
</g>
</svg>
